<?xml version="1.0" encoding="UTF-8"?>
<svg id="art" xmlns="http://www.w3.org/2000/svg" xmlns:xlink="http://www.w3.org/1999/xlink" viewBox="0 0 800 158.02">
  <defs>
    <style>
      .cls-1 {
        fill: url(#linear-gradient);
      }

      .cls-1, .cls-2, .cls-3 {
        stroke-width: 0px;
      }

      .cls-2 {
        fill: url(#linear-gradient-2);
      }

      .cls-3 {
        fill: #141751;
      }
    </style>
    <linearGradient id="linear-gradient" x1="112.83" y1="62.21" x2="-19.1" y2="154.32" gradientUnits="userSpaceOnUse">
      <stop offset="0" stop-color="#bc6cac"/>
      <stop offset=".93" stop-color="#814099"/>
    </linearGradient>
    <linearGradient id="linear-gradient-2" x1="259.17" y1="110.5" x2="-1.54" y2="38.51" gradientUnits="userSpaceOnUse">
      <stop offset=".03" stop-color="#3bace2"/>
      <stop offset="1" stop-color="#3a5fac"/>
    </linearGradient>
  </defs>
  <polygon class="cls-1" points="102.74 41 97.1 80.48 44.93 137.87 13.04 138.42 102.74 41"/>
  <g>
    <g>
      <path class="cls-3" d="M226.05,136.98h-23.88l19.28-99.24h23.88l-19.28,99.24Z"/>
      <path class="cls-3" d="M294.64,136.98l-9.2-37.54h-12.37l-7.33,37.54h-23.88l19.27-99.24h37.4c19.99,0,32.21,10.65,32.21,27.33,0,14.81-7.62,25.02-21.72,30.49l11.79,41.42h-26.17ZM287.6,79.6c11.07,0,18.84-1.58,18.84-13.09,0-7.34-6.05-8.91-14.67-8.91h-10.65l-4.17,22.01h10.65Z"/>
      <path class="cls-3" d="M412.4,95.13c-5.9,30.06-22.01,43.29-47.46,43.29-22.58,0-36.1-16.25-30.78-43.29l3.02-15.53c5.75-29.92,22.01-43.29,47.61-43.29,22.57,0,35.95,15.82,30.63,43.29l-3.02,15.53ZM358.03,95.13c-3.17,16.25.72,23.44,10.65,23.44s16.68-7.19,19.85-23.44l3.02-15.53c3.17-16.25-.72-23.45-10.65-23.45s-16.68,7.19-19.85,23.45l-3.02,15.53Z"/>
      <path class="cls-3" d="M513.91,37.74l-19.28,99.24h-18.98l-26.04-55.95-10.78,55.95h-22.44l19.28-99.24h18.7l26.18,56.67,10.92-56.67h22.44Z"/>
      <path class="cls-3" d="M574.55,65.21c-2.59-6.62-7.04-9.06-15.96-9.06s-13.23,4.46-13.23,10.07c0,4.89,4.75,8.2,15.39,11.36,17.12,5.18,24.6,13.52,24.6,27.04,0,20.28-14.53,33.8-41.28,33.8-18.12,0-28.91-5.18-35.81-16.4l19.55-12.37c3.74,6.19,9.2,8.92,18.12,8.92,10.5,0,14.67-4.75,14.67-10.21,0-4.75-4.03-7.62-16.25-11.79-14.38-4.89-23.44-13.52-23.44-27.33,0-17.55,11.5-32.93,41.28-32.93,15.82,0,26.89,5.9,31.93,16.83l-19.56,12.08Z"/>
      <path class="cls-3" d="M576.96,136.98l53.79-99.24h23.02l15.24,99.24h-24.6l-2.01-16.97h-30.63l-8.48,16.97h-26.32ZM621.84,100.16h18.26l-3.45-29.34-14.81,29.34Z"/>
      <path class="cls-3" d="M698.6,136.98h-23.88l19.28-99.24h23.88l-19.28,99.24Z"/>
      <path class="cls-3" d="M742.17,117.13h38.83l-3.88,19.85h-62.71l19.27-99.24h23.88l-15.39,79.39Z"/>
    </g>
    <polygon class="cls-2" points="149.27 138.06 57.31 138.06 175.72 4.16 149.27 138.06"/>
  </g>
</svg>